<?xml version="1.0" encoding="utf-8"?>
<!-- Generator: Adobe Illustrator 22.0.0, SVG Export Plug-In . SVG Version: 6.00 Build 0)  -->
<svg version="1.1" id="Слой_1" xmlns="http://www.w3.org/2000/svg" xmlns:xlink="http://www.w3.org/1999/xlink" x="0px" y="0px"
	 viewBox="0 0 100 100" style="enable-background:new 0 0 100 100;" xml:space="preserve">
<style type="text/css">
	.st0{fill:#FFFFFF;}
	.st1{fill:#070707;}
	.st2{fill:#0501B7;}
	.st3{fill:#FE1602;}
</style>
<rect x="-10.7" y="-7.2" class="st0" width="124" height="114.3"/>
<g>
	<g>
		
			<rect x="66.4" y="64.7" transform="matrix(0.5654 -0.8248 0.8248 0.5654 -22.0144 90.5731)" class="st1" width="17" height="2.9"/>
		
			<rect x="62.7" y="62.2" transform="matrix(0.5654 -0.8248 0.8248 0.5654 -21.5304 86.4182)" class="st1" width="17" height="2.9"/>
		
			<rect x="70.1" y="67.3" transform="matrix(0.5654 -0.8248 0.8248 0.5654 -22.4983 94.7281)" class="st1" width="17" height="2.9"/>
	</g>
	<g>
		
			<rect x="17.6" y="33.7" transform="matrix(0.5654 -0.8248 0.8248 0.5654 -19.6643 32.925)" class="st1" width="7.7" height="2.9"/>
		<rect x="22.8" y="26" transform="matrix(0.5654 -0.8248 0.8248 0.5654 -11.0517 33.9282)" class="st1" width="7.7" height="2.9"/>
		<rect x="21.3" y="36.2" transform="matrix(0.5654 -0.8248 0.8248 0.5654 -20.1483 37.08)" class="st1" width="7.7" height="2.9"/>
		
			<rect x="26.5" y="28.5" transform="matrix(0.5654 -0.8248 0.8248 0.5654 -11.5357 38.0832)" class="st1" width="7.7" height="2.9"/>
		<rect x="25" y="38.7" transform="matrix(0.5654 -0.8248 0.8248 0.5654 -20.6322 41.2349)" class="st1" width="7.7" height="2.9"/>
		
			<rect x="30.2" y="31.1" transform="matrix(0.5654 -0.8248 0.8248 0.5654 -12.0196 42.2381)" class="st1" width="7.7" height="2.9"/>
	</g>
	<g>
		<rect x="73.4" y="25.4" transform="matrix(0.8246 -0.5657 0.5657 0.8246 -6.0284 48.2862)" class="st1" width="2.9" height="17"/>
		
			<rect x="74.6" y="23.6" transform="matrix(0.8246 -0.5657 0.5657 0.8246 -2.1946 47.8062)" class="st1" width="2.9" height="7.7"/>
		
			<rect x="79.8" y="31.3" transform="matrix(0.8246 -0.5657 0.5657 0.8246 -5.6103 52.1272)" class="st1" width="2.9" height="7.7"/>
		
			<rect x="67.2" y="28.7" transform="matrix(0.8246 -0.5657 0.5657 0.8246 -6.3638 44.5104)" class="st1" width="2.9" height="7.7"/>
		
			<rect x="72.4" y="36.3" transform="matrix(0.8246 -0.5657 0.5657 0.8246 -9.7795 48.8315)" class="st1" width="2.9" height="7.7"/>
		
			<rect x="23.7" y="58.5" transform="matrix(0.8246 -0.5657 0.5657 0.8246 -30.8655 25.1423)" class="st1" width="2.9" height="7.7"/>
		
			<rect x="28.9" y="66.2" transform="matrix(0.8246 -0.5657 0.5657 0.8246 -34.2813 29.4636)" class="st1" width="2.9" height="7.7"/>
		<rect x="30" y="55.1" transform="matrix(0.8246 -0.5657 0.5657 0.8246 -30.4888 28.9507)" class="st1" width="2.9" height="17"/>
		
			<rect x="22.6" y="60.2" transform="matrix(0.8246 -0.5657 0.5657 0.8246 -34.6579 25.6551)" class="st1" width="2.9" height="17"/>
	</g>
	<g>
		<path class="st2" d="M51.3,49.4c7.8,5.3,8.8,6,14.1,9.6c-5.3,7.8-15.9,9.7-23.7,4.4S32,47.5,37.3,39.7C39,40.9,43.6,44,51.3,49.4z
			"/>
		<path class="st3" d="M51.3,49.4c7.8,5.3,8.8,6,14.1,9.6c5.3-7.8,3.3-18.4-4.4-23.7S42.6,32,37.3,39.7C39,40.9,43.6,44,51.3,49.4z"
			/>
		<circle class="st2" cx="58.4" cy="54.2" r="8.5"/>
		<circle class="st3" cx="44.3" cy="44.5" r="8.5"/>
	</g>
</g>
</svg>
